<?xml version="1.0" encoding="utf-8"?>
<!-- Generator: Adobe Illustrator 18.1.1, SVG Export Plug-In . SVG Version: 6.00 Build 0)  -->
<svg version="1.1" id="Layer_1" xmlns="http://www.w3.org/2000/svg" xmlns:xlink="http://www.w3.org/1999/xlink" x="0px" y="0px"
	 viewBox="0 0 400 45" style="enable-background:new 0 0 400 45;" xml:space="preserve">
<style type="text/css">
	.st0{fill-rule:evenodd;clip-rule:evenodd;fill:#D02F2F;}
</style>
<g>
	<g>
		<path class="st0" d="M52.3,19.2c0,5.2-3.5,7.8-10.4,7.8h-29v15.6H2.4v-40h39.6c6.9,0,10.4,2.6,10.4,7.8V19.2z M41.9,16.8v-4.3
			c0-1.3-0.4-2.2-1.3-2.6c-0.7-0.4-1.8-0.5-3.5-0.5H12.9V20h24.2c1.7,0,2.8-0.2,3.5-0.5C41.5,19.1,41.9,18.2,41.9,16.8z"/>
	</g>
	<g>
		<polygon class="st0" points="115.6,42.5 104.8,42.5 104.8,25.3 71.2,25.3 71.2,42.5 60.5,42.5 60.5,2.5 71.2,2.5 71.2,18 
			104.8,18 104.8,2.5 115.6,2.5 		"/>
	</g>
	<g>
		<path class="st0" d="M183.2,33c0,3.7-0.8,6.2-2.5,7.5c-1.6,1.3-4.6,1.9-9,1.9h-34c-4.4,0-7.4-0.6-9-1.9c-1.6-1.3-2.5-3.8-2.5-7.5
			V12c0-3.7,0.8-6.2,2.5-7.5c1.6-1.3,4.6-1.9,9-1.9h34c4.4,0,7.4,0.6,9,1.9c1.6,1.3,2.5,3.8,2.5,7.5V33z M172.5,35V9.6h-35.4V35
			H172.5z"/>
	</g>
	<g>
		<polygon class="st0" points="243.4,42.5 195.7,42.5 195.7,2.5 243,2.5 243,9.3 206.4,9.3 206.4,18.2 227.7,18.2 227.7,25.1 
			206.4,25.1 206.4,35 243.4,35 		"/>
	</g>
	<g>
		<path class="st0" d="M307.3,42.5H300l-33.9-24.7c-1.4-1-2.7-2.1-3.8-3.3c0.3,2.6,0.4,4.6,0.4,6.1v21.9H253v-40h7.3l32.5,23.6
			c2.3,1.7,4.1,3.2,5.3,4.3c-0.3-3.7-0.4-6-0.4-6.9v-21h9.7V42.5z"/>
	</g>
	<g>
		<rect x="318.4" y="2.5" class="st0" width="10.7" height="40"/>
	</g>
	<g>
		<polygon class="st0" points="397.6,42.5 383,42.5 366.1,27 350.5,42.5 337.8,42.5 359.8,22 337.5,2.5 351.7,2.5 366.5,16.1 
			380.5,2.5 392.9,2.5 372.7,20.9 		"/>
	</g>
</g>
</svg>
