<?xml version="1.0" encoding="utf-8"?>
<!-- Generator: Adobe Illustrator 18.1.1, SVG Export Plug-In . SVG Version: 6.00 Build 0)  -->
<svg version="1.1" id="Layer_1" xmlns="http://www.w3.org/2000/svg" xmlns:xlink="http://www.w3.org/1999/xlink" x="0px" y="0px"
	 viewBox="0 0 400 75" style="enable-background:new 0 0 400 75;" xml:space="preserve">
<style type="text/css">
	.st0{fill:#8E8E8E;}
	.st1{fill:#1F1E19;}
</style>
<g>
	<g>
		<path class="st0" d="M5.3,59.4c0-2.2,0.7-4.4,2.2-6c1.1-1.2,2.3-1.7,3.8-1.7c1.5,0,3.3,1,3.3,3.4c0,1.7-0.7,4.5-2.3,6.2
			c-1,1.2-2.2,1.8-3.8,1.8C6.9,63,5.3,61.8,5.3,59.4z M11.1,59.1c1-1.7,1.8-3.9,1.8-4.8c0-0.6-0.4-1.2-1.1-1.2
			c-1.1,0-2.1,0.9-3.4,3.1C7.5,57.7,7,59.3,7,60.3c0,0.7,0.5,1.3,1.1,1.3C9.1,61.6,10.1,60.8,11.1,59.1z"/>
		<path class="st0" d="M24.4,52.3c0.2,0,0.2,0.1,0.2,0.3l-0.1,0.7c0,0.2-0.1,0.2-0.3,0.2h-2.7c-0.6,2.1-1.8,6.6-2.9,9.7
			c-1.5,4-3.6,7.5-6.7,7.5c-1.4,0-2.2-0.7-2.2-1.7c0-0.7,0.5-1.3,1.2-1.3c0.8,0,1.3,0.7,1.3,1.4c0.1,0.3,0.2,0.4,0.5,0.4
			c1.2,0,2.5-2.2,3.8-7.1l2.4-9h-2.3c-0.2,0-0.2-0.1-0.2-0.3l0.1-0.6c0.1-0.2,0.1-0.3,0.3-0.3h2.2c0.8-2.1,1.2-3.9,3-5.9
			c0.7-0.8,2.3-1.9,4-1.9c2,0,2.8,1,2.8,1.8c0,0.7-0.6,1.3-1.2,1.3c-1,0-1.3-0.5-1.4-1.2c-0.1-0.3-0.3-0.8-1-0.8
			c-2.1,0-2.9,3.9-3.7,6.7H24.4z"/>
		<path class="st0" d="M42.6,60.1c1.3,0,2.4-0.4,2.4-1.6c0-1.3-1.5-1.5-3-1.9c-2.2-0.6-4.6-1.4-4.6-4.7c0-2.9,2.1-4.6,5.2-4.6
			c1.8,0,3.5,0.3,5.1,1.2l-1,2.6c-1.2-0.6-2.5-0.9-3.7-0.9c-1.3,0-2.3,0.4-2.3,1.5c0,1.5,1.7,1.5,2.7,1.9c2.2,0.6,5.1,1.3,5.1,4.6
			c0,2.9-1.9,4.8-5.5,4.8c-2.2,0-4.1-0.4-5.8-1.4l1-2.6C39.5,59.8,41.1,60.1,42.6,60.1z"/>
		<path class="st0" d="M52.3,55.1c0-5.4,1.8-7.9,6.5-7.9c4.7,0,6.5,2.5,6.5,7.9S63.5,63,58.8,63C54.1,63,52.3,60.5,52.3,55.1z
			 M62,55.1c0-3.1-0.5-5-3.1-5c-2.7,0-3.2,1.9-3.2,5s0.5,5,3.2,5C61.5,60.1,62,58.2,62,55.1z"/>
		<path class="st0" d="M82.4,55.1c0,5.4-1.8,7.9-6.3,7.9c-4.6,0-6.3-2.5-6.3-7.9v-7.6h3.3v7.6c0,3.3,0.6,5,3,5c2.4,0,3-1.7,3-5v-7.6
			h3.3V55.1z"/>
		<path class="st0" d="M90.4,62.7V50.5h-3.9v-2.9h11.2v2.9h-3.9v12.3H90.4z"/>
		<path class="st0" d="M110.4,62.7v-6.4h-5.3v6.4h-3.3V47.5h3.3v5.9h5.3v-5.9h3.3v15.2H110.4z"/>
		<path class="st0" d="M128,62.7V47.5h9.8v2.9h-6.5V54h5.3l-0.2,2.6h-5v6.1H128z"/>
		<path class="st0" d="M141.7,62.7V47.5h3.3v12.3h6.8v2.9H141.7z"/>
		<path class="st0" d="M155,55.1c0-5.4,1.8-7.9,6.5-7.9c4.7,0,6.5,2.5,6.5,7.9s-1.8,7.9-6.5,7.9C156.8,63,155,60.5,155,55.1z
			 M164.7,55.1c0-3.1-0.5-5-3.1-5c-2.7,0-3.2,1.9-3.2,5s0.5,5,3.2,5C164.2,60.1,164.7,58.2,164.7,55.1z"/>
		<path class="st0" d="M178.3,57.7h-2.4v5h-3.3V47.9c1.6-0.3,3.3-0.6,5-0.6c3.6,0,6.5,1.3,6.5,5.4c0,2.4-1.1,3.8-2.7,4.4l3.3,5.4
			L181,63L178.3,57.7z M178.2,55.2c1.7,0,2.5-0.9,2.5-2.5c0-1.9-1.3-2.5-2.9-2.5c-0.6,0-1.2,0.1-1.8,0.2v4.8H178.2z"/>
		<path class="st0" d="M188.5,62.7V47.5h3.3v15.2H188.5z"/>
		<path class="st0" d="M196.6,47.9c1.9-0.4,3.7-0.6,5.4-0.6c4,0,7,1.6,7,7.9c0,5.6-2,7.6-6.8,7.6h-5.7V47.9z M205.7,55.1
			c0-4-1.3-5-3.4-5c-0.7,0-1.5,0.1-2.4,0.2v9.4C204.4,59.8,205.7,59.8,205.7,55.1z"/>
		<path class="st0" d="M220.9,59.9h-4.8l-0.8,2.8h-3.5l5-15l3.4-0.4l5.1,15.2l-3.6,0.4L220.9,59.9z M218.5,51.3l-1.7,6.1h3.4
			L218.5,51.3z"/>
		<path class="st0" d="M238.7,62.7V47.5h3.3v15.2H238.7z"/>
		<path class="st0" d="M255.6,62.7l-3.8-6.9c-0.7-1.3-1.5-2.6-2.1-4.1c0.2,2.1,0.2,4.4,0.2,6.5v4.5h-3.2V47.9l3.8-0.6l3.3,6.1
			c1,1.8,1.8,3.3,2.5,4.9c-0.3-2-0.4-4.1-0.4-6.9v-4h3.2v15.2H255.6z"/>
		<path class="st0" d="M270.3,63c-4.7,0-6.5-2.5-6.5-7.9s1.8-7.9,6.5-7.9c1.5,0,2.9,0.2,4.4,1.1l-1.1,2.6c-1.1-0.6-2.1-0.8-3.3-0.8
			c-2.7,0-3.2,1.8-3.2,4.9s0.5,4.9,3.2,4.9c1.1,0,2.1-0.2,3.3-0.8l1.1,2.6C273.2,62.8,271.8,63,270.3,63z"/>
		<path class="st0" d="M279.6,61.3c0-1.1,0.5-1.6,1.6-1.6s1.6,0.6,1.6,1.6c0,1.1-0.5,1.6-1.6,1.6S279.6,62.4,279.6,61.3z"/>
	</g>
	<g>
		<path class="st1" d="M16.3,25.4c0,2,0.2,2.3,2.5,2.3h1.9v3.5H5v-3.5h1.5c2.2,0,2.5-0.3,2.4-2.3V10.4c0-2-0.2-2.3-2.4-2.3H5V4.6
			h16.4c4.2,0,6.5,0.6,8.2,2c1.5,1.2,2.4,3.2,2.4,5.6c0,2.4-0.9,4.4-2.5,5.6c-1.8,1.4-3.8,1.8-8,1.8h-5.1V25.4z M18.8,16.1
			c3.9,0,5.3-1.1,5.3-4c0-2.9-1.4-4-5.3-4h-2.5v8H18.8z"/>
		<path class="st1" d="M33.5,28h1c1.6,0,1.8-0.3,1.9-1.9V9.7c0-1.6-0.3-1.9-1.9-1.9h-1V4.6h9.1v10.6c2.4-2.4,4-3.2,6.7-3.2
			c2,0,3.7,0.6,4.8,1.6c1,1,1.4,2.3,1.4,5.3v7.2c0,1.6,0.3,1.8,1.9,1.9h0.9v3.2H46.6V28H47c1.6,0,1.8-0.3,1.8-1.9v-7.2
			c0-2.2-0.9-3.4-2.7-3.4c-2.2,0-3.2,1.5-3.2,4.9v5.7c0,1.6,0.3,1.8,1.8,1.9h0.4v3.2H33.5V28z"/>
		<path class="st1" d="M81.5,21.9c0,6.2-4.1,10-10.8,10c-6.8,0-10.9-3.8-10.9-10.2c0-6.1,4.2-9.9,10.9-9.9
			C77.4,11.8,81.5,15.7,81.5,21.9z M67,21.8c0,5.1,0.9,6.7,3.7,6.7c2.8,0,3.7-1.6,3.7-6.6c0-5-0.9-6.7-3.7-6.7
			C67.9,15.2,67,16.9,67,21.8z"/>
		<path class="st1" d="M103.1,24.9c-1.2,4.7-4.4,7-9.5,7c-6.1,0-10-4-10-10c0-6.1,3.9-10,10-10c4.4,0,7.6,2,9.1,5.6
			c0.7,1.6,0.8,2.2,0.8,5.1H90.5c0.1,2.2,0.3,3.2,0.9,4.1c0.6,0.9,1.6,1.4,3,1.4c1.3,0,2.5-0.5,3.2-1.2c0.4-0.4,0.6-1,0.8-2H103.1z
			 M96.7,19.5c0-1.6-0.2-2.3-0.6-2.9c-0.5-0.8-1.4-1.2-2.4-1.2c-1,0-2,0.5-2.5,1.3c-0.4,0.6-0.5,1.2-0.6,2.9H96.7z"/>
		<path class="st1" d="M105.2,28h1.1c1.6,0,1.8-0.3,1.9-1.9v-8.6c0-1.6-0.3-1.8-1.9-1.9h-1.1v-3.2h9.3v2.9c1.2-1.5,1.9-2.1,3-2.6
			c1.1-0.6,2.5-0.8,3.8-0.8c2,0,3.7,0.6,4.8,1.6c1,1,1.4,2.3,1.4,5.3v7.2c0,1.6,0.3,1.8,1.8,1.9h0.9v3.2h-11.7V28h0.4
			c1.6,0,1.8-0.3,1.8-1.9v-7.2c0-2.2-0.9-3.4-2.8-3.4c-2,0-3.2,1.5-3.2,4.2v6.3c0,1.6,0.3,1.8,1.8,1.9h0.4v3.2h-11.8V28z"/>
		<path class="st1" d="M131.8,12.5h9.7v13.7c0,1.6,0.2,1.8,1.8,1.9h1v3.2h-12.5V28h1.2c1.6,0,1.8-0.3,1.8-1.9v-8
			c0-2.2-0.1-2.3-1.8-2.4h-1.2V12.5z M141.1,7.7c0,1.8-1.5,3.3-3.3,3.3c-1.9,0-3.3-1.5-3.3-3.4c0-1.8,1.5-3.3,3.3-3.3
			S141.1,5.8,141.1,7.7z"/>
		<path class="st1" d="M154.5,26.2c-0.7,0.7-1,1-1,1.3c0,0.4,0.5,0.6,1.3,0.6h0.4v3.2h-9.6v-3.3h0.3c1.8,0,2.1-0.1,4.2-2l4.2-3.9
			l-4.1-4.4c-1.1-1.2-1.9-1.6-3.7-2v-3.1h12.4v3h-0.6c-0.7,0-1,0.2-1,0.5c0,0.2,0.1,0.4,0.6,0.9l1.7,2.1l2.2-2.2
			c0.4-0.4,0.6-0.7,0.6-0.9c0-0.3-0.3-0.4-0.8-0.4h-0.4v-3h9.1v3.1c-1.8,0.1-2.3,0.3-4.5,2.2l-3.9,3.5c2.8,3.4,5.1,5.7,6.2,6.2
			c0.6,0.3,1,0.4,2.1,0.4h0.6v3.3h-13.5v-3.2c1.1,0,1.7-0.2,1.7-0.7c0-0.2-0.1-0.5-0.4-0.8l-1.9-2.1L154.5,26.2z"/>
		<path class="st1" d="M180.4,27.8h1c2-0.1,2.4-0.4,3.1-2.6l6.8-20.6h7.9l6.5,20.7c0.7,2,1.2,2.4,2.8,2.4h1.3v3.5h-14.7v-3.5h1.2
			c1.8,0,2.4-0.2,2.4-0.9c0-0.2,0-0.4-0.2-0.9l-1-3.3h-7.7l-1,3c-0.2,0.4-0.2,0.9-0.2,1.2c0,0.7,0.5,0.9,2.2,0.9h1.3v3.5h-11.7V27.8
			z M193.7,10.8l-2.8,8.4h5.4L193.7,10.8z"/>
		<path class="st1" d="M211.5,31.4v-7h3.1c0.8,1.7,1.3,2.3,2.4,3c1,0.7,2.2,1,3.5,1c1.9,0,2.9-0.6,2.9-1.8c0-0.5-0.2-0.9-0.8-1.2
			c-0.5-0.3-0.6-0.3-4.4-1.3c-2.4-0.6-3.8-1.2-4.8-2c-1.3-1-2-2.4-2-4.1c0-1.9,1-3.8,2.6-4.8c1.5-1,3.6-1.5,6.1-1.5
			c2.3,0,3.6,0.3,6.2,1.6l0.4-1h2.8v5.9h-2.8c-1.1-1.4-1.7-2-2.7-2.5c-0.9-0.4-2.2-0.7-3.2-0.7c-1.5,0-2.4,0.6-2.4,1.7
			c0,1.1,0.6,1.5,4.3,2.4c3.2,0.8,3.8,1,5.1,1.8c1.8,1.1,2.8,2.7,2.8,4.6c0,3.8-3.6,6.4-8.8,6.4c-2.2,0-3.5-0.3-6.7-1.9l-0.6,1.4
			H211.5z"/>
		<path class="st1" d="M233.2,31.4v-7h3.1c0.8,1.7,1.3,2.3,2.4,3c1,0.7,2.2,1,3.5,1c1.9,0,2.9-0.6,2.9-1.8c0-0.5-0.2-0.9-0.8-1.2
			c-0.5-0.3-0.6-0.3-4.4-1.3c-2.4-0.6-3.8-1.2-4.8-2c-1.3-1-2-2.4-2-4.1c0-1.9,1-3.8,2.6-4.8c1.5-1,3.6-1.5,6.1-1.5
			c2.3,0,3.6,0.3,6.2,1.6l0.4-1h2.8v5.9h-2.8c-1.1-1.4-1.7-2-2.7-2.5c-0.9-0.4-2.2-0.7-3.2-0.7c-1.5,0-2.4,0.6-2.4,1.7
			c0,1.1,0.6,1.5,4.3,2.4c3.2,0.8,3.8,1,5.1,1.8c1.8,1.1,2.8,2.7,2.8,4.6c0,3.8-3.6,6.4-8.8,6.4c-2.2,0-3.5-0.3-6.7-1.9l-0.6,1.4
			H233.2z"/>
		<path class="st1" d="M276.2,21.9c0,6.2-4.2,10-10.8,10c-6.8,0-10.9-3.8-10.9-10.2c0-6.1,4.2-9.9,10.9-9.9
			C272.1,11.8,276.2,15.7,276.2,21.9z M261.7,21.8c0,5.1,0.9,6.7,3.7,6.7c2.8,0,3.7-1.6,3.7-6.6c0-5-0.9-6.7-3.7-6.7
			C262.6,15.2,261.7,16.9,261.7,21.8z"/>
		<path class="st1" d="M296.2,24.6c-0.1,2.2-0.6,3.6-2,5c-1.4,1.6-3.5,2.3-6.3,2.3c-3.4,0-5.8-1-7.4-3c-1.5-1.8-2.3-4.3-2.3-7.1
			c0-6.2,3.8-10,9.8-10c5,0,8.3,2.6,8.3,6.4c0,2.5-1.6,4.1-4,4.1c-2,0-3.3-1.2-3.3-3.1c0-1,0.4-1.9,1-2.4c0.4-0.4,1-0.5,2-0.6
			c-0.9-0.9-1.6-1.1-2.6-1.1c-2.8,0-4.2,2.2-4.2,6.4c0,4.6,1.2,6.7,3.7,6.7c2,0,2.9-1.1,3.2-3.6H296.2z"/>
		<path class="st1" d="M298,12.5h9.7v13.7c0,1.6,0.2,1.8,1.8,1.9h1v3.2H298V28h1.2c1.6,0,1.8-0.3,1.8-1.9v-8c0-2.2-0.1-2.3-1.8-2.4
			H298V12.5z M307.4,7.7c0,1.8-1.5,3.3-3.3,3.3c-1.9,0-3.3-1.5-3.3-3.4c0-1.8,1.5-3.3,3.3-3.3S307.4,5.8,307.4,7.7z"/>
		<path class="st1" d="M335.2,26.2c0,2.2-0.3,3.2-1.2,4.2c-1,1-2.4,1.6-4.3,1.6c-1.3,0-2.6-0.3-3.4-0.9c-0.6-0.4-1-0.9-1.4-2
			c-1.4,1.4-2.1,1.9-3.4,2.4c-1,0.3-2.1,0.5-3.2,0.5c-3.6,0-5.9-2.1-5.9-5.4c0-1.6,0.6-3,1.8-3.9c1-0.8,1.7-1,5-1.7
			c2.2-0.4,3.3-0.8,4-1.2c0.8-0.4,1.4-1.4,1.4-2.4c0-1.9-1.6-3.1-4-3.1c-1.3,0-2,0.2-3,0.8c1.6,0.2,2.4,1,2.4,2.3
			c0,1.4-1.4,2.5-3.2,2.5c-2,0-3.4-1.2-3.4-3c0-3.2,3.4-5.1,8.9-5.1c3.2,0,5.9,0.8,7.3,2c1,0.9,1.3,1.8,1.3,4.9V26
			c0,1.2,0.3,1.8,1,1.8c0.7,0,1-0.5,1-1.8v-1.6h2.4V26.2z M324.5,22c-0.8,0.4-1.6,0.9-1.9,1c-2.6,1.2-2.6,1.2-3,1.9
			c-0.2,0.2-0.2,0.6-0.2,1c0,1.2,1,2.1,2.4,2.1c1.8,0,2.8-1.2,2.8-3.2V22z"/>
		<path class="st1" d="M335.6,15.7v-3c3.2-0.4,4.8-2.8,5.2-7.5h4v7.3h4.8v3.2h-4.8v9.8c0,2.1,0.3,2.7,1.5,2.7c1.3,0,1.6-1,1.6-4.2
			v-1.8h3.2v2.8c0,2.5-0.3,3.5-1.2,4.6c-1.2,1.4-3,2.2-5.4,2.2c-2.6,0-4.3-0.8-5.3-2.3c-0.8-1.2-1-2.1-1-5.1v-8.8H335.6z"/>
		<path class="st1" d="M373.2,24.9c-1.2,4.7-4.4,7-9.5,7c-6.1,0-10-4-10-10c0-6.1,3.9-10,10-10c4.4,0,7.6,2,9.1,5.6
			c0.7,1.6,0.8,2.2,0.8,5.1h-12.9c0.1,2.2,0.3,3.2,0.9,4.1c0.6,0.9,1.6,1.4,3,1.4c1.3,0,2.5-0.5,3.2-1.2c0.4-0.4,0.6-1,0.8-2H373.2z
			 M366.9,19.5c0-1.6-0.2-2.3-0.6-2.9c-0.5-0.8-1.4-1.2-2.4-1.2c-1,0-2,0.5-2.5,1.3c-0.4,0.6-0.5,1.2-0.6,2.9H366.9z"/>
		<path class="st1" d="M376.2,31.4v-7h3.1c0.8,1.7,1.3,2.3,2.4,3c1,0.7,2.2,1,3.5,1c1.9,0,2.9-0.6,2.9-1.8c0-0.5-0.2-0.9-0.8-1.2
			c-0.5-0.3-0.6-0.3-4.4-1.3c-2.4-0.6-3.8-1.2-4.8-2c-1.3-1-2-2.4-2-4.1c0-1.9,1-3.8,2.6-4.8c1.5-1,3.6-1.5,6.1-1.5
			c2.3,0,3.6,0.3,6.2,1.6l0.4-1h2.8v5.9h-2.8c-1.1-1.4-1.7-2-2.7-2.5c-0.9-0.4-2.2-0.7-3.2-0.7c-1.5,0-2.4,0.6-2.4,1.7
			c0,1.1,0.6,1.5,4.3,2.4c3.2,0.8,3.8,1,5.1,1.8c1.8,1.1,2.8,2.7,2.8,4.6c0,3.8-3.6,6.4-8.8,6.4c-2.2,0-3.5-0.3-6.7-1.9l-0.6,1.4
			H376.2z"/>
	</g>
</g>
</svg>
